<svg version="1.1" xmlns="http://www.w3.org/2000/svg" xmlns:xlink="http://www.w3.org/1999/xlink" width="84.29241" height="75.56205" viewBox="0,0,84.29241,75.56205"><g transform="translate(-197.04513,-142.52676)"><g data-paper-data="{&quot;isPaintingLayer&quot;:true}" fill-rule="nonzero" stroke-linecap="butt" stroke-linejoin="miter" stroke-miterlimit="10" stroke-dasharray="" stroke-dashoffset="0" style="mix-blend-mode: normal"><g data-paper-data="{&quot;index&quot;:null}" stroke="none" stroke-width="0.69834"><path d="M277.76547,213.0654v0v0c-0.5551,0 -1.1159,-0.1166 -1.6655,-0.3492c-1.5964,-0.6704 -1.2912,-4.3855 -0.4728,-7.6391l0.2556,-1.0154l-1.0356,0.1544c-1.1662,0.1739 -3.484,0.4658 -5.8989,0.4658c-1.4302,0 -2.699,-0.1034 -3.7717,-0.3059c-4.4337,-0.8352 -6.8472,-4.9254 -6.9596,-5.1195v-0.0007c0.0028,-0.0154 0.3128,-1.4568 1.5238,-1.4568c0.4986,0 1.0663,0.2361 1.72,0.7096c0.7283,0.5754 4.4826,3.4742 6.8004,4.0671c0.3401,0.0873 0.773,0.1313 1.2856,0.1313c1.6257,0 3.799,-0.4302 5.5497,-0.7773c1.1515,-0.2276 2.1467,-0.4239 2.6348,-0.4239c0.0887,0 0.1599,0.0063 0.1942,0.0133c0.9853,0.4742 2.4064,7.1195 2.7137,9.6398c0.0126,0.3101 -0.146,0.653 -0.4469,0.9665c-0.5643,0.5887 -1.4721,0.94 -2.4268,0.94z" fill="#d4fc6a"/><path d="M259.74007,198.4988c-0.4177,0 -0.6502,0.3938 -0.7598,0.6606c0.5901,0.889 2.8024,3.8681 6.3269,4.5315c1.0293,0.1942 2.2542,0.2933 3.6418,0.2933c2.3702,0 4.6482,-0.287 5.7948,-0.4581l2.0713,-0.3087l-0.5112,2.0315c-1.0154,4.0357 -0.7353,6.4883 0.0643,6.8242c0.4658,0.1941 0.935,0.2933 1.3973,0.2933c0.757,0 1.4938,-0.2773 1.9226,-0.7249c0.1794,-0.1872 0.2409,-0.3415 0.2507,-0.4281c-0.3094,-2.3443 -1.4456,-7.8144 -2.3164,-9.0057c-0.4693,0.0279 -1.4051,0.2129 -2.3953,0.4085c-1.7759,0.3519 -3.9868,0.7898 -5.681,0.7898c-0.5789,0 -1.0559,-0.0496 -1.4588,-0.1529c-2.4344,-0.623 -6.2515,-3.5588 -7.0414,-4.181c-0.53,-0.3799 -0.9692,-0.5733 -1.3058,-0.5733M259.74007,197.1021c0.6508,0 1.3443,0.2738 2.1466,0.8555c0.0419,0.0328 4.2159,3.3471 6.5463,3.9428c0.2835,0.0726 0.6585,0.1089 1.1131,0.1089c1.5531,0 3.6914,-0.4225 5.4093,-0.7633c1.2389,-0.2451 2.2179,-0.4385 2.7752,-0.4385c0.1453,0 0.2682,0.0126 0.375,0.0384c1.7731,0.4246 3.227,10.1887 3.2305,10.2844c0.021,0.5014 -0.2067,1.0266 -0.6403,1.4784c-0.6935,0.7228 -1.7892,1.1543 -2.9303,1.1543c-0.6501,0 -1.301,-0.1354 -1.9365,-0.4015c-2.4204,-1.0161 -1.4874,-6.0378 -0.8799,-8.4534c-1.2989,0.1935 -3.5936,0.4735 -6.0008,0.4735c-0.0007,0 -0.0007,0 -0.0007,0c-1.4714,0 -2.7835,-0.1062 -3.9009,-0.3178c-4.7522,-0.8945 -7.3283,-5.2703 -7.4359,-5.4568l-0.1327,-0.229l0.0538,-0.2605c0.1432,-0.6969 0.7898,-2.0154 2.2082,-2.0154v0v1.3967v0z" fill="#000000"/></g><path d="M242.92407,202.1965v0c1.0908,2.9546 3.9414,3.6809 7.7522,4.6418c3.8095,0.9623 3.5071,2.8883 3.5134,3.9428c0.0063,1.0545 -4.5504,8.7293 -7.4024,6.0421c-2.8513,-2.6859 3.3604,-7.8466 3.3604,-7.8466c0,0 -4.2201,-0.7807 -8.1796,-3.1481c-3.961,-2.3652 -5.0302,-8.9268 -5.0302,-8.9268l5.4555,1.8918c0,0 0.2325,2.595 0.5307,3.403z" data-paper-data="{&quot;index&quot;:null}" fill="#ff1557" stroke="#000000" stroke-width="1.39667"/><path d="M222.63807,194.1321h2.9651c0,0 -4.6795,4.5231 -6.9359,7.5846c-2.2535,3.0636 -2.4616,8.628 -2.8408,9.8214c-0.3778,1.1935 -5.396,3.0511 -7.8437,3.9757c-2.4477,0.9246 -3.6474,-3.0741 -2.2843,-4.8451c1.3639,-1.7696 7.5504,-2.5063 7.5504,-2.5063c0,0 1.3192,-4.5294 3.4002,-8.4625c2.0818,-3.9316 5.989,-5.5678 5.989,-5.5678v0v0z" data-paper-data="{&quot;index&quot;:null}" fill="#59c9ee" stroke="#000000" stroke-width="1.39667"/><path d="M258.21627,161.3556c0,0 2.4686,-4.2731 6.9603,-5.1202c4.4889,-0.8457 10.7328,0.3366 10.7328,0.3366c0,0 -2.2696,-7.6433 0.1899,-8.674c2.4602,-1.0315 4.5853,0.4623 4.5392,1.5586c-0.0454,1.0971 -1.7438,9.406 -2.6956,9.635c-0.9532,0.2277 -7.1796,-1.6928 -9.6824,-1.0517c-2.5029,0.6397 -6.8088,4.0727 -6.8088,4.0727" data-paper-data="{&quot;index&quot;:null}" fill="#35abbf" stroke="#000000" stroke-width="1.39667"/><path d="M242.92407,158.4205c-0.2982,0.8073 -0.5307,3.4016 -0.5307,3.4016l-5.4555,1.8918c0,0 1.0692,-6.5616 5.0302,-8.9282c3.9595,-2.3653 8.1796,-3.1467 8.1796,-3.1467c0,0 -6.2117,-5.1594 -3.3604,-7.8466c2.852,-2.6872 7.4087,4.9869 7.4024,6.042c-0.0063,1.0552 0.2961,2.9813 -3.5134,3.9429c-3.8108,0.9623 -6.6614,1.6878 -7.7522,4.6432v0z" data-paper-data="{&quot;index&quot;:null}" fill="#ffc300" stroke="#000000" stroke-width="1.39667"/><path d="M222.63807,166.4856v0v0c0,0 -3.9079,-1.6362 -5.989,-5.5685c-2.081,-3.9324 -3.4002,-8.4632 -3.4002,-8.4632c0,0 -6.1865,-0.7353 -7.5504,-2.507c-1.3631,-1.7703 -0.1641,-5.7704 2.2843,-4.8458c2.4477,0.926 7.4659,2.7836 7.8437,3.9771c0.3792,1.1934 0.5873,6.7578 2.8408,9.8214c2.2564,3.0643 6.9359,7.586 6.9359,7.586h-2.9651z" data-paper-data="{&quot;index&quot;:null}" fill="#80c34f" stroke="#000000" stroke-width="1.39667"/><path d="M213.94867,170.1435v0l-2.0769,1.4854c0,0 0.1048,-4.2788 -4.8939,-8.0609c-4.9987,-3.7836 -9.1887,-4.5979 -9.1887,-4.5979c0,0 0.5824,-7.5658 3.6306,-11.9604c0.2018,-0.2919 -1.3778,9.7725 -0.824,9.9129c0.5552,0.141 4.4805,1.7982 7.1377,4.1711c4.1362,3.6963 6.2152,9.0498 6.2152,9.0498z" data-paper-data="{&quot;index&quot;:null}" fill="#ff6d00" stroke="#000000" stroke-width="1.39667"/><path d="M213.94867,190.4735c0,0 -2.079,5.3534 -6.2152,9.0483c-2.6572,2.3716 -6.5825,4.0301 -7.1377,4.1733c-0.5538,0.1404 1.0258,10.2027 0.824,9.9122c-3.0482,-4.396 -3.6306,-11.9618 -3.6306,-11.9618c0,0 4.19,-0.8143 9.1887,-4.5965c4.9987,-3.7836 4.8939,-8.0609 4.8939,-8.0609l2.0769,1.4854v0z" data-paper-data="{&quot;index&quot;:null}" fill="#ff6d00" stroke="#000000" stroke-width="1.39667"/><g data-paper-data="{&quot;index&quot;:null}" stroke="none" stroke-width="0.69834"><path d="M231.10397,186.9448c1.7927,-5.5253 6.0386,-5.9778 6.1677,-5.9889h41.1426c-0.8771,11.6098 -20.7804,20.7936 -36.9393,16.3082c-3.5321,-0.9783 -6.917,-2.5754 -10.1782,-3.3024c-0.456,-1.2151 -1.1949,-3.9338 -0.1928,-7.0169v0z" fill="#8761d4"/><path d="M278.40867,179.2533h-41.1244c0,0 -4.359,-0.3806 -6.1803,-5.9889c-0.9246,-2.8444 -0.3666,-5.38 0.0831,-6.7097c3.2515,-0.7779 6.6671,-2.4134 10.2858,-3.4958c15.9829,-4.7823 35.9309,4.6216 36.9358,16.1944v0z" fill="#8761d4"/><path d="M209.98697,180.1618c0,-7.5427 6.9799,-13.165 17.8362,-13.165c0.3241,0 0.6502,-0.0189 0.9756,-0.0461c-0.2765,1.1774 -0.5042,3.3981 0.3918,6.6719c1.0161,3.7194 3.4316,5.5706 5.3611,6.4813c-1.9295,0.9106 -4.345,2.7633 -5.3611,6.4833c-0.9127,3.3395 -0.5922,5.746 -0.2591,7.0169c-0.2689,-0.0188 -0.5363,-0.0286 -0.8017,-0.0286c-11.3103,0 -18.1428,-5.8695 -18.1428,-13.4137v0z" fill="#ff6d00"/><path d="M226.61297,165.332c4.5595,0 9.4087,-2.6607 14.6595,-4.232c17.6079,-5.2682 39.7124,6.1999 39.7124,19.066c0,12.8662 -21.9662,23.9921 -39.7138,19.0653c-5.0336,-1.398 -9.7969,-3.9623 -14.332,-3.9623c-12.1447,0 -19.4801,-7.0037 -19.4801,-15.103c0,-8.1 7.496,-14.834 19.154,-14.834v0zM228.93147,193.6041c-0.3331,-1.2709 -0.6536,-3.6774 0.2591,-7.0169c1.0161,-3.72 3.4316,-5.572 5.3611,-6.4833c-1.9295,-0.9107 -4.345,-2.7626 -5.3611,-6.4813c-0.8946,-3.2738 -0.6683,-5.4945 -0.3918,-6.6719c-0.3268,0.0272 -0.6529,0.0461 -0.9756,0.0461c-10.8563,0 -17.8362,5.6223 -17.8362,13.165c0,7.5442 6.8325,13.4137 18.1421,13.4137c0.2668,0 0.5335,0.0091 0.8024,0.0286v0zM241.47427,163.0589c-3.6201,1.0824 -7.0343,2.7186 -10.2865,3.4958c-0.4504,1.3297 -1.007,3.8653 -0.0831,6.7097c1.8206,5.6083 6.181,5.9889 6.181,5.9889h41.123c-1.0049,-11.5728 -20.9529,-20.9767 -36.9344,-16.1944v0zM241.47497,197.2641c16.1596,4.4854 36.0622,-4.6984 36.9393,-16.3082h-41.1426c-0.1291,0.0125 -4.375,0.4636 -6.1677,5.9889c-1.0035,3.0811 -0.2632,5.8018 0.1914,7.0148c3.2626,0.7284 6.6475,2.3255 10.1796,3.3045v0z" fill="#231f20"/></g><g data-paper-data="{&quot;index&quot;:null}" stroke="none" stroke-width="0.69834"><g><path d="M217.46827,178.9565v0v0c-1.5175,0 -2.8911,-1.2346 -3.1251,-2.8101c-0.1271,-0.8443 0.0769,-1.7004 0.5741,-2.4121c0.4881,-0.6976 1.2067,-1.1634 1.9714,-1.2779c0.1278,-0.0189 0.2556,-0.0286 0.3855,-0.0286c1.5216,0 2.8974,1.2353 3.1313,2.8108c0.1271,0.845 -0.0789,1.7018 -0.5782,2.4134c-0.4889,0.697 -1.2067,1.162 -1.9707,1.2759c-0.1285,0.0195 -0.2577,0.0286 -0.3883,0.0286z" fill="#ffffff"/><path d="M217.27417,173.1261c-0.095,0 -0.1893,0.007 -0.2822,0.0209c-1.1823,0.1767 -2.1683,1.491 -1.9588,2.8953c0.1934,1.2934 1.331,2.2159 2.4351,2.2159c0.0964,0 0.1899,-0.007 0.2842,-0.021c1.1809,-0.176 2.1726,-1.4895 1.9624,-2.8953c-0.1921,-1.2926 -1.3388,-2.2158 -2.4407,-2.2158M217.27417,171.7294c1.8596,0 3.5391,1.4973 3.8234,3.4079c0.1529,1.0196 -0.0957,2.0559 -0.6984,2.9149c-0.5978,0.8533 -1.4881,1.4239 -2.4393,1.5656c-0.1599,0.0245 -0.3254,0.0363 -0.4902,0.0363c-1.8534,0 -3.5315,-1.4958 -3.8164,-3.4057c-0.1543,-1.0217 0.0929,-2.0566 0.6927,-2.9156c0.5971,-0.8541 1.4868,-1.426 2.44,-1.5678c0.1592,-0.023 0.3227,-0.0356 0.4882,-0.0356v0v1.3967v0z" fill="#000000"/></g><path d="M215.95917,174.4906c0.338,0 0.6439,0.146 0.8659,0.382c0.2214,0.2354 0.359,0.5608 0.359,0.9204c0,0.3597 -0.1376,0.6851 -0.359,0.9205c-0.222,0.236 -0.5279,0.3819 -0.8659,0.3819c-0.338,0 -0.6439,-0.1459 -0.8659,-0.3819c-0.2214,-0.2354 -0.359,-0.5608 -0.359,-0.9205c0,-0.3596 0.1376,-0.685 0.359,-0.9204c0.222,-0.236 0.5279,-0.382 0.8659,-0.382z" fill="#000000"/></g><g data-paper-data="{&quot;index&quot;:null}" stroke="none" stroke-width="0.69834"><g><path d="M217.41377,188.4427v0v0c-1.5175,0 -2.8911,-1.2346 -3.125,-2.8108c-0.1271,-0.8443 0.0775,-1.6997 0.574,-2.4113c0.4881,-0.6984 1.2067,-1.1635 1.9714,-1.278c0.1278,-0.0182 0.2556,-0.0286 0.3855,-0.0286c1.5217,0 2.8974,1.2353 3.1313,2.8108c0.1271,0.8443 -0.0789,1.7004 -0.5782,2.4127c-0.4881,0.697 -1.2067,1.1621 -1.9707,1.2766c-0.1285,0.0188 -0.2577,0.0286 -0.3883,0.0286z" fill="#ffffff"/><path d="M217.21967,182.6116c-0.095,0 -0.1893,0.007 -0.2821,0.0203c-1.1823,0.1773 -2.1684,1.4909 -1.9589,2.8953c0.1935,1.2947 1.3311,2.2165 2.4351,2.2165c0.0964,0 0.19,-0.007 0.2843,-0.0203c1.1808,-0.1773 2.1725,-1.4909 1.963,-2.8953c-0.1928,-1.2926 -1.3394,-2.2165 -2.4414,-2.2165M217.21967,181.2149c1.8604,0 3.5392,1.498 3.8234,3.4086c0.1529,1.0203 -0.0957,2.0552 -0.6977,2.9149c-0.5977,0.854 -1.4888,1.4239 -2.4399,1.5656c-0.16,0.0245 -0.3255,0.0371 -0.4903,0.0371c-1.8534,0 -3.5315,-1.4966 -3.8164,-3.4058c-0.1543,-1.0217 0.0929,-2.0566 0.6928,-2.9163c0.597,-0.8541 1.4874,-1.4253 2.44,-1.5671c0.1592,-0.0244 0.3226,-0.037 0.4881,-0.037v0v1.3967v0z" fill="#000000"/></g><path d="M215.90467,183.9762c0.338,0 0.6439,0.1459 0.866,0.3819c0.2213,0.2354 0.3589,0.5608 0.3589,0.9205c0,0.3596 -0.1376,0.685 -0.3589,0.9204c-0.2221,0.236 -0.528,0.382 -0.866,0.382c-0.338,0 -0.6438,-0.146 -0.8659,-0.382c-0.2214,-0.2354 -0.359,-0.5608 -0.359,-0.9204c0,-0.3597 0.1376,-0.6851 0.359,-0.9205c0.2221,-0.236 0.5279,-0.3819 0.8659,-0.3819z" fill="#000000"/></g></g></g></svg>